<?xml version="1.0" standalone="no"?>
<!DOCTYPE svg PUBLIC "-//W3C//DTD SVG 20010904//EN"
 "http://www.w3.org/TR/2001/REC-SVG-20010904/DTD/svg10.dtd">
<svg version="1.0" xmlns="http://www.w3.org/2000/svg"
 width="565.000000pt" height="565.000000pt" viewBox="0 0 565.000000 565.000000"
 preserveAspectRatio="xMidYMid meet">

<g transform="translate(0.000000,565.000000) scale(0.100000,-0.100000)"
fill="#000000" stroke="none">
<path d="M2069 3694 c-9 -12 -11 -113 -5 -441 3 -235 9 -429 12 -432 9 -10
426 -13 474 -4 l45 9 3 152 c2 151 3 152 25 152 26 0 47 -17 47 -38 0 -8 7
-29 16 -48 19 -40 67 -60 108 -44 42 16 56 63 56 194 0 95 3 115 16 120 9 3
20 4 25 0 15 -9 31 49 24 91 -3 22 -8 66 -11 98 -7 70 -27 72 -34 3 -3 -25 -8
-46 -12 -46 -5 0 -19 0 -33 0 -23 0 -25 3 -25 50 0 43 -3 50 -20 50 -17 0 -20
-7 -20 -43 0 -24 -7 -58 -15 -75 -10 -19 -14 -48 -12 -78 4 -47 11 -56 50 -68
15 -5 17 -20 17 -123 0 -107 -2 -119 -20 -130 -33 -21 -62 -3 -65 42 -2 29
-10 46 -34 67 -17 15 -40 28 -51 28 -19 0 -20 7 -20 249 0 137 -3 257 -6 265
-6 15 -36 16 -265 15 -213 0 -260 -3 -270 -15z m496 -46 c3 -13 4 -198 3 -413
l-3 -390 -50 1 c-218 2 -388 13 -396 26 -5 7 -9 187 -9 400 l0 387 148 4 c81
1 182 4 224 5 73 2 78 1 83 -20z m325 -268 c0 -44 -3 -45 -60 -28 -31 10 -40
18 -40 35 0 25 12 31 63 32 37 1 37 1 37 -39z"/>
<path d="M2175 3596 c-16 -11 -17 -25 -10 -130 5 -84 11 -119 21 -123 7 -3 78
-1 156 4 l143 8 0 115 0 114 -35 8 c-66 15 -256 18 -275 4z m283 -129 l3 -89
-78 8 c-43 4 -95 7 -116 6 -46 -3 -57 18 -53 99 3 51 5 54 32 60 16 4 70 6
119 5 l90 -1 3 -88z"/>
<path d="M3702 3598 c-29 -29 -5 -88 36 -88 35 0 52 16 52 50 0 14 -5 31 -12
38 -7 7 -24 12 -38 12 -14 0 -31 -5 -38 -12z"/>
<path d="M825 3581 c-36 -16 -59 -51 -65 -99 -4 -39 -9 -48 -27 -50 -18 -3
-23 -10 -23 -32 0 -22 5 -29 23 -32 21 -3 22 -6 25 -140 l3 -138 44 0 45 0 0
140 0 140 40 0 c38 0 40 2 40 30 0 28 -2 30 -40 30 -37 0 -40 2 -40 28 0 37
17 52 56 52 26 0 34 6 44 30 7 17 10 33 7 36 -10 10 -112 14 -132 5z"/>
<path d="M1830 3335 l0 -245 45 0 45 0 0 245 0 245 -45 0 -45 0 0 -245z"/>
<path d="M4632 3338 l3 -243 43 -3 42 -3 0 245 0 246 -45 0 -45 0 2 -242z"/>
<path d="M1517 3436 c-77 -28 -107 -78 -107 -174 0 -68 23 -112 79 -149 55
-37 165 -29 214 14 16 16 16 17 -4 39 -20 22 -24 22 -50 9 -46 -24 -96 -19
-125 12 -46 49 -32 58 99 61 l117 3 0 36 c0 50 -33 115 -69 136 -41 24 -109
30 -154 13z m103 -66 c19 -10 43 -64 33 -74 -4 -3 -39 -6 -80 -6 -65 0 -73 2
-73 19 0 10 9 30 21 45 22 28 64 35 99 16z"/>
<path d="M3953 3439 c-43 -12 -73 -53 -73 -98 1 -50 18 -68 96 -100 76 -31 95
-50 75 -75 -17 -20 -58 -20 -117 0 -39 13 -48 13 -55 2 -28 -43 26 -78 122
-78 98 0 139 32 139 108 0 47 -26 74 -90 97 -89 31 -114 65 -66 86 19 9 35 8
72 -5 26 -9 51 -16 54 -16 6 0 30 44 30 55 0 8 -103 35 -129 34 -14 0 -40 -5
-58 -10z"/>
<path d="M4325 3435 c-137 -49 -152 -267 -22 -328 48 -23 129 -22 177 3 44 23
49 38 21 64 -18 17 -22 17 -43 2 -35 -25 -94 -21 -124 9 -14 14 -24 33 -22 43
3 15 19 17 121 20 l117 3 0 32 c0 56 -39 119 -90 145 -51 25 -79 27 -135 7z
m115 -77 c11 -12 20 -32 20 -45 0 -23 -2 -24 -77 -21 -45 2 -78 8 -80 14 -2 6
8 26 22 43 33 39 83 43 115 9z"/>
<path d="M990 3315 c0 -182 24 -225 125 -225 42 0 56 5 75 25 13 14 27 25 32
25 4 0 8 -11 8 -25 0 -23 4 -25 45 -25 l45 0 0 175 0 175 -45 0 -45 0 0 -103
c0 -78 -4 -108 -16 -125 -36 -52 -104 -46 -124 11 -5 16 -10 72 -10 123 l0 94
-45 0 -45 0 0 -125z"/>
<path d="M3040 3438 c0 -2 27 -79 59 -173 l59 -170 51 -3 c35 -2 51 1 51 9 0
18 61 213 70 222 8 9 21 -27 60 -160 l21 -73 47 0 47 0 58 168 c31 92 57 171
57 175 0 5 -19 7 -41 5 l-42 -3 -32 -112 c-31 -111 -40 -132 -50 -121 -3 3
-20 57 -38 119 l-33 114 -48 0 -49 0 -14 -50 c-43 -150 -55 -185 -63 -185 -5
0 -16 26 -25 58 -9 31 -24 84 -34 117 l-18 60 -47 3 c-25 2 -46 2 -46 0z"/>
<path d="M3700 3265 l0 -175 45 0 45 0 0 175 0 175 -45 0 -45 0 0 -175z"/>
<path d="M4800 3432 c0 -5 29 -81 65 -168 35 -87 65 -167 65 -176 0 -33 -38
-61 -74 -54 -28 5 -34 2 -50 -24 l-17 -30 35 -15 c44 -19 56 -19 105 1 45 18
73 62 119 194 17 47 46 129 66 183 l36 97 -45 0 -44 0 -36 -115 c-20 -63 -40
-115 -45 -115 -8 0 -18 23 -70 168 l-23 62 -43 0 c-24 0 -44 -4 -44 -8z"/>
<path d="M2400 2390 c0 -13 5 -20 13 -17 6 2 12 10 12 17 0 7 -6 15 -12 18 -8
2 -13 -5 -13 -18z"/>
<path d="M2685 2400 c-11 -5 -15 -9 -8 -9 9 -1 11 -26 6 -102 l-6 -101 23 4
c13 1 25 9 28 16 2 7 -2 11 -10 10 -7 -2 -13 4 -12 12 1 9 4 52 8 98 8 84 6
87 -29 72z"/>
<path d="M3706 2401 c-13 -5 -16 -10 -8 -15 8 -5 10 -35 5 -101 l-6 -95 35 0
c53 0 81 27 82 80 1 51 -21 73 -54 52 -29 -18 -30 -17 -23 38 6 51 3 54 -31
41z m78 -134 c-1 -39 -18 -67 -40 -67 -17 0 -19 46 -4 85 16 41 45 29 44 -18z"/>
<path d="M2491 2344 c-13 -13 -19 -24 -13 -24 7 0 12 -25 14 -62 3 -54 6 -63
23 -66 11 -1 29 4 40 13 19 15 19 15 -6 9 -34 -7 -41 5 -33 56 5 29 13 44 27
49 20 8 20 8 -1 13 -15 4 -20 11 -16 22 9 23 -7 18 -35 -10z"/>
<path d="M1743 2329 c-12 -4 -26 -17 -32 -28 -15 -27 -14 -84 1 -99 19 -19 63
-14 84 10 14 17 15 19 2 10 -25 -20 -62 -11 -66 16 -3 16 2 22 16 22 28 0 67
34 60 52 -8 19 -38 27 -65 17z m35 -25 c-3 -18 -34 -42 -42 -33 -3 3 -3 15 1
27 6 26 46 32 41 6z"/>
<path d="M1851 2327 c-16 -16 -14 -27 4 -21 13 5 14 -3 9 -55 -6 -51 -4 -61 8
-61 11 0 17 14 21 46 3 28 13 54 26 67 24 24 25 22 21 -60 -1 -43 1 -53 14
-53 10 0 16 9 16 25 0 37 28 97 42 93 9 -3 12 -21 10 -56 -4 -59 16 -79 46
-48 16 16 16 17 0 10 -16 -5 -18 1 -18 54 0 69 -14 82 -53 52 -21 -17 -26 -18
-31 -5 -7 20 -35 19 -58 -2 -16 -14 -18 -14 -18 -1 0 20 -24 30 -39 15z"/>
<path d="M2379 2320 c-17 -14 -19 -18 -6 -14 15 5 17 -1 17 -55 0 -54 2 -61
20 -61 10 0 25 10 31 23 11 20 11 21 -4 8 -16 -12 -17 -8 -17 47 0 34 -4 63
-9 66 -5 3 -20 -3 -32 -14z"/>
<path d="M3297 2333 c-21 -6 -47 -53 -47 -87 0 -53 61 -75 96 -33 10 12 12 16
4 10 -25 -22 -59 -16 -66 12 -13 53 25 112 48 72 11 -21 28 -22 28 -2 0 12
-31 38 -42 34 -2 -1 -11 -3 -21 -6z"/>
<path d="M3454 2333 c-32 -6 -55 -36 -61 -80 -4 -28 -1 -43 10 -52 17 -13 57
-7 57 10 0 5 5 9 10 9 6 0 10 -7 10 -15 0 -19 24 -19 40 0 11 13 10 14 -5 9
-16 -7 -17 -2 -10 51 5 44 4 60 -7 66 -7 5 -15 8 -18 7 -3 0 -15 -3 -26 -5z
m26 -33 c0 -33 -29 -92 -42 -88 -33 11 -12 108 23 108 12 0 19 -7 19 -20z"/>
<path d="M2107 2316 c-4 -11 -1 -13 10 -9 14 6 15 -1 9 -55 -6 -50 -4 -62 7
-62 8 0 17 14 20 33 9 53 26 87 43 87 14 0 16 -8 10 -60 -6 -47 -4 -60 6 -60
8 0 20 23 28 57 11 42 20 59 34 61 17 4 19 -1 14 -44 -3 -27 -4 -55 -1 -61 6
-18 40 -16 47 2 3 8 0 14 -7 12 -8 -1 -12 15 -12 53 0 53 -1 55 -27 58 -16 2
-28 -1 -28 -7 0 -6 -7 -11 -15 -11 -8 0 -15 5 -15 10 0 14 -43 12 -59 -2 -11
-10 -14 -10 -18 0 -6 17 -40 15 -46 -2z"/>
<path d="M2787 2312 c-26 -29 -33 -85 -12 -105 26 -27 95 -15 95 15 0 9 -3 9
-12 0 -15 -15 -57 -16 -59 -2 -1 6 -2 15 -3 20 -1 6 15 18 34 28 46 22 48 56
4 60 -20 2 -36 -3 -47 -16z m53 -12 c0 -11 -2 -20 -4 -20 -2 0 -11 -3 -20 -6
-11 -4 -16 0 -16 13 0 23 8 33 27 33 7 0 13 -9 13 -20z"/>
<path d="M2923 2323 c-24 -9 -13 -41 24 -70 21 -18 33 -34 29 -41 -11 -18 -37
-15 -52 5 -7 10 -16 15 -20 11 -12 -13 17 -38 45 -38 56 0 68 46 21 80 -16 12
-30 28 -30 36 0 17 37 19 43 2 2 -7 8 -10 12 -6 21 20 -35 37 -72 21z"/>
<path d="M3052 2318 c-19 -19 -14 -34 23 -62 39 -30 43 -43 19 -53 -10 -4 -22
1 -30 12 -15 21 -30 14 -21 -10 12 -31 97 -9 97 25 0 5 -16 21 -35 36 -39 29
-46 54 -15 54 11 0 20 -4 20 -10 0 -5 7 -10 15 -10 20 0 19 16 -1 24 -25 10
-59 7 -72 -6z"/>
<path d="M3560 2320 c0 -5 5 -10 11 -10 8 0 10 -20 7 -60 -6 -79 15 -81 33 -2
11 46 18 58 37 60 12 2 22 8 22 13 0 14 -22 11 -42 -7 -16 -16 -18 -16 -24 0
-7 17 -44 23 -44 6z"/>
<path d="M3866 2308 c-20 -29 -20 -82 0 -102 40 -40 104 0 104 64 0 45 -15 60
-56 60 -23 0 -38 -7 -48 -22z m72 -30 c4 -41 -12 -78 -32 -78 -17 0 -26 22
-26 64 0 64 53 77 58 14z"/>
<path d="M4007 2316 c-4 -11 -1 -13 10 -9 14 6 15 -1 9 -55 -6 -50 -4 -62 7
-62 8 0 17 14 20 33 9 53 25 87 43 87 14 0 15 -8 9 -55 -5 -46 -4 -56 10 -61
10 -4 24 0 33 10 16 16 16 17 -2 10 -17 -7 -18 -3 -12 38 4 24 4 52 0 61 -7
20 -44 22 -63 5 -11 -10 -14 -10 -18 0 -6 17 -40 15 -46 -2z"/>
</g>
</svg>
